# xmcd
#
# Track frame offsets: 
#        150
#        16938
#        34005
#        49756
#        64819
#        103219
#        119120
#        134625
#        151084
#        172315
#        189201
#        218240
#        233758
#        249138
#        267302
#
# Disc length: 3885 seconds
#
# Revision: 1
# Processed by: cddbd v1.5.2PL0 Copyright (c) Steve Scherf et al.
# Submitted via: ExactAudioCopy v1.3
#
DISCID=d50f2b0f
DTITLE=Various Artist - Hithouse Vol. 1
DYEAR=1998
DGENRE=House
TTITLE0=DJ Disco - Stamp Your Feet [Radio Edit]
TTITLE1=Groove Gangsters - Funky Beats [Radio Edit]
TTITLE2=Sven Väth - Fusion
TTITLE3=U.S.U.R.A. - Trance Emotion [Noise Factory Edit Mix]
TTITLE4=Taucher - Atlantis [Phase II]
TTITLE5=Bamboo - Bamboogie [Radio Edit]
TTITLE6=Camisra - Let Me Show You [Radio Edit]
TTITLE7=The Outhere Brothers - Pass The Toilet Paper [Radio Mix]
TTITLE8=2 The Soul - Only You [Original Version]
TTITLE9=Huff and Herb - Feeling Good [Radio Edit]
TTITLE10=Sub Magic - B.Y.T. [Magic Club Mix]
TTITLE11=The Flatliners - I Can Read Your Mind [Radio Edit]
TTITLE12=Gala - Come Into My Life [Edit Mix]
TTITLE13=Jason Nevins Vs. The Krew - We Want Some Pussy! [Explicit Voc
TTITLE13=al Mix]
TTITLE14=Jimmy Bo Horne - Is It In [Frank 'O Edit Mix]
EXTD=
EXTT0=
EXTT1=
EXTT2=
EXTT3=
EXTT4=
EXTT5=
EXTT6=
EXTT7=
EXTT8=
EXTT9=
EXTT10=
EXTT11=
EXTT12=
EXTT13=
EXTT14=
PLAYORDER=
